<svg width="18" height="18" viewBox="0 0 18 18" fill="none" xmlns="http://www.w3.org/2000/svg">
	<path fill-rule="evenodd" clip-rule="evenodd" d="M16 8.5C16 12.6421 12.6421 16 8.5 16C4.35786 16 1 12.6421 1 8.5C1 4.35786 4.35786 1 8.5 1C12.6421 1 16 4.35786 16 8.5ZM14.1464 14.8537C12.6451 16.1889 10.6673 17 8.5 17C3.80558 17 0 13.1944 0 8.5C0 3.80558 3.80558 0 8.5 0C13.1944 0 17 3.80558 17 8.5C17 10.6673 16.1888 12.6452 14.8536 14.1466L17.8535 17.1465C18.0487 17.3417 18.0487 17.6583 17.8535 17.8536C17.6582 18.0488 17.3416 18.0488 17.1464 17.8536L14.1464 14.8537Z" fill="#445368"/>
</svg>
