<?xml version="1.0" encoding="utf-8"?>
<svg  xmlns="http://www.w3.org/2000/svg" viewBox="0 0 992.13 992.13" width="150" height="150">
    <title>Logo2</title>
    <path d="M894.31,812.41a0.18,0.18,0,0,0,0-.08,1.11,1.11,0,0,0-.09-0.23,2.58,2.58,0,0,0-.21-0.41,1.51,1.51,0,0,0-.11-0.25c-0.11-.21-0.22-0.4-0.34-0.59l-388.62-640-0.08-.14L504.4,170a10.15,10.15,0,0,0-16.92-.11,9.33,9.33,0,0,0-.54.86q-39.18,64.66-78.83,129.08a22.21,22.21,0,0,0,0,25.57q52.29,85.36,104.39,170.85a24.15,24.15,0,0,1,0,27.69C455.24,618,394.48,717,336.93,811.63a10.18,10.18,0,0,0,8.94,15H514a10.12,10.12,0,0,0,5.29-1.49,10.25,10.25,0,0,0,3.66-3.87h0l5.79-9.66,77.5-127.91s0,0,0,0a10.18,10.18,0,0,1,17.37-.84l0.21,0.33,0.07,0.11,77.16,126L708.15,821a10.17,10.17,0,0,0,8.95,5.3h4.71a21.71,21.71,0,0,0,2.34,0H884.87A10.16,10.16,0,0,0,895,816.15,9.73,9.73,0,0,0,894.31,812.41Z" />
    <path d="M446.68,530.15l5.59-9.23a19.86,19.86,0,0,0,0-22.68L417.74,442.3l-39.5-64a10.2,10.2,0,0,0-17.63.46L98.31,811.68a10.17,10.17,0,0,0,8.95,15H250.82l-0.05,0h4.28l6.23,0h0a10.12,10.12,0,0,0,8.9-5.3,0,0,0,0,0,0,0l5.89-9.77a9.82,9.82,0,0,0,.74-1.15s0,0,0,0l6.4-10.57c55.06-90.94,107.53-177.76,162.52-268.28C446.12,531.11,446.41,530.63,446.68,530.15Z" />
</svg>
